<svg width="204" height="202" viewBox="0 0 204 202" fill="none" xmlns="http://www.w3.org/2000/svg">
<g clip-path="url(#clip0)">
<path d="M140.18 103.235C137.751 101.151 134.18 101.053 131.638 103C129.287 104.823 127.117 106.865 125.156 109.097L112.157 104.24C104.189 63.3035 105.033 65.9165 103.21 63.0355C108.561 61.1652 112.164 56.1757 112.227 50.5468C112.29 44.9179 108.801 39.8499 103.493 37.8614C98.1857 35.8728 92.1911 37.3878 88.489 41.6535C84.7868 45.9192 84.1665 52.0258 86.9363 56.9387C86.2072 57.1916 85.4965 57.4938 84.8092 57.8432L62.1542 64.275C59.1331 65.1345 56.6852 67.3367 55.5283 70.236C54.3713 73.1353 54.6364 76.4032 56.2457 79.0817L64.6527 92.9838C59.7233 104.809 60.1285 111.207 58.1702 140.318C57.8252 145.869 62.0805 150.645 67.6745 150.988C73.2685 151.33 78.083 147.108 78.428 141.558L80.4875 111.844L88.118 120.554L85.1468 139.648C84.77 144.957 88.6295 149.636 93.9486 150.321C99.2677 151.005 104.202 147.456 105.202 142.228C108.848 114.524 108.578 119.214 108.578 118.41C110.874 116.855 112.424 114.432 112.866 111.71L120.665 114.624C115.522 122.093 111.813 130.44 109.726 139.246C109.199 141.272 109.655 143.426 110.96 145.069C112.265 146.712 114.269 147.656 116.378 147.621H137.783C139.571 147.614 141.283 146.903 142.544 145.645L159.425 129.096C160.753 127.778 161.468 125.97 161.398 124.108C161.327 122.245 160.478 120.496 159.054 119.281L140.18 103.235ZM104.696 101.493L97.3353 98.7457L96.7275 95.5968L101.286 83.9725L104.696 101.493ZM98.652 43.7735C102.381 43.7735 105.405 46.7731 105.405 50.4733C105.405 54.1736 102.381 57.1732 98.652 57.1732C94.9227 57.1732 91.8994 54.1736 91.8994 50.4733C91.8994 46.7731 94.9227 43.7735 98.652 43.7735ZM61.9854 75.5977C61.4124 74.6959 61.3062 73.5772 61.6995 72.585C62.0929 71.5929 62.9387 70.8457 63.9774 70.5729C79.846 66.084 86.9363 64.1075 87.6115 63.873C90.4185 62.3988 93.8523 62.8038 96.2327 64.89C98.6131 66.9761 99.4422 70.307 98.3144 73.2528L89.5698 95.6973L84.5391 94.0223C86.4298 88.6289 83.6612 85.5135 80.3525 80.0531L88.5569 77.7082C89.7149 77.3731 90.6047 76.4505 90.8912 75.2879C91.1777 74.1254 90.8173 72.8995 89.9458 72.072C89.0743 71.2445 87.8241 70.9412 86.6662 71.2763L74.4102 74.6263C73.3779 74.903 72.5388 75.6486 72.1481 76.6362C71.8025 77.427 71.8025 78.3244 72.1481 79.1152C73.8459 82.474 75.7632 85.7192 77.8878 88.8299C78.4764 90.3578 77.8669 92.0841 76.4459 92.9135C75.0249 93.7428 73.208 93.4327 72.1481 92.1798L61.9854 75.5977ZM98.652 141.357C98.4376 143.207 96.7521 144.534 94.8874 144.321C93.0228 144.109 91.685 142.436 91.8994 140.586L94.7355 121.391C94.9487 119.538 94.3736 117.681 93.1486 116.266L85.5857 107.422C83.7976 105.365 80.9342 104.582 78.3365 105.441C75.7389 106.3 73.9213 108.631 73.7349 111.341L71.6416 141.089C71.6416 142.939 70.13 144.439 68.2653 144.439H68.0628C66.2104 144.331 64.7931 142.76 64.889 140.921C66.8811 110.772 66.746 107.422 69.5146 99.1812C72.6214 101.305 76.6839 101.462 79.9473 99.5832C92.3383 104.072 90.9878 103.402 91.4605 104.072L93.0474 112.179C93.8666 116.428 97.3348 119.68 101.657 120.252L98.652 141.357ZM104.088 113.351C103.155 113.67 102.128 113.568 101.278 113.072C100.427 112.576 99.8381 111.736 99.6649 110.772L98.8208 106.383C107.295 109.532 106.181 108.963 106.282 109.499C106.628 111.157 105.671 112.811 104.054 113.351H104.088ZM137.851 140.888H116.378C121.307 121.123 131.571 111.509 135.758 108.293L154.462 124.339L137.851 140.888Z" fill="#2E9AD5"/>
<path d="M109.186 3.17004C105.232 -0.748738 98.8255 -0.748738 94.871 3.17004L3.71095 93.6179C-0.238687 97.5415 -0.238687 103.898 3.71095 107.822L94.871 198.269C98.8255 202.188 105.232 202.188 109.186 198.269L200.346 107.822C204.296 103.898 204.296 97.5415 200.346 93.6179L109.186 3.17004ZM195.586 103.098L104.426 193.546C103.792 194.18 102.929 194.537 102.029 194.537C101.128 194.537 100.265 194.18 99.6315 193.546L8.47153 103.098C7.83235 102.469 7.47283 101.613 7.47283 100.72C7.47283 99.8265 7.83235 98.9703 8.47153 98.3413L99.6315 7.89343C100.265 7.25925 101.128 6.90253 102.029 6.90253C102.929 6.90253 103.792 7.25925 104.426 7.89343L195.586 98.3413C196.225 98.9703 196.585 99.8265 196.585 100.72C196.585 101.613 196.225 102.469 195.586 103.098Z" fill="#2E9AD5"/>
</g>
<defs>
<clipPath id="clip0">
<rect width="202.578" height="200.995" fill="white" transform="translate(0.743507 0.224609)"/>
</clipPath>
</defs>
</svg>
