<svg width="180" height="182" viewBox="0 0 180 182" fill="none" xmlns="http://www.w3.org/2000/svg">
<g clip-path="url(#clip0)">
<path d="M173.774 89.8071C167.794 84.8353 158.343 84.4089 152.14 91.125L136.741 107.802C134.75 101.347 128.774 96.6465 121.729 96.6465H94.2484C92.1631 96.6465 91.4649 95.8431 87.8427 93.0279C74.0323 80.8819 53.2892 80.9207 39.5208 93.1442L29.4199 102.115C24.8794 99.6908 19.5775 99.6309 15.0122 101.932L3.42689 107.774C0.838624 109.081 -0.208907 112.256 1.08313 114.867L32.5178 178.293C33.8137 180.904 36.9604 181.961 39.5487 180.657L51.1341 174.811C56.8447 171.933 60.0229 166.055 59.8168 160.072H121.729C133.209 160.072 144.18 154.54 151.068 145.273L176.219 111.439C181.098 104.881 180.326 95.2652 173.774 89.8071ZM46.4466 165.357L39.5484 168.838L12.7977 114.867L19.6994 111.386C22.2877 110.082 25.431 111.136 26.7269 113.751L48.7903 158.268C50.0827 160.879 49.0348 164.05 46.4466 165.357ZM167.836 105.096L142.685 138.93C137.764 145.551 129.93 149.501 121.729 149.501H56.1601L36.5273 109.885L46.4431 101.08C56.3099 92.3231 71.1891 92.3231 81.0559 101.08C86.8678 106.242 90.4827 107.218 94.2481 107.218H121.729C124.617 107.218 126.968 109.589 126.968 112.503C126.968 115.417 124.617 117.789 121.729 117.789H94.9711C92.0789 117.789 89.732 120.157 89.732 123.074C89.732 125.991 92.0793 128.359 94.9711 128.359H125.239C129.587 128.359 133.779 126.52 136.741 123.31L159.807 98.3309C161.916 96.0475 165.15 96.2378 167.134 97.9891C169.209 99.8212 169.433 102.954 167.836 105.096Z" fill="#2E9AD5"/>
<path d="M110.691 36.8717C114.278 33.0768 116.489 27.9465 116.489 22.2978C116.489 10.6627 107.171 0.803711 95.5329 0.803711C83.9824 0.803711 74.2274 10.6451 74.2274 22.2978C74.2274 27.7735 76.3546 32.9426 80.2174 36.914C70.637 42.3333 63.7493 52.735 63.7493 64.9338V70.2192C63.7493 73.1366 66.0965 75.5046 68.9883 75.5046H121.728C124.62 75.5046 126.968 73.1366 126.968 70.2192V64.9338C126.967 52.9746 120.447 42.4108 110.691 36.8717ZM95.5329 11.3749C101.212 11.3749 106.011 16.3784 106.011 22.2981C106.011 28.1262 101.31 32.8689 95.5329 32.8689C89.6651 32.8689 84.7055 28.0275 84.7055 22.2981C84.7055 16.4806 89.7664 11.3749 95.5329 11.3749ZM74.2274 64.9338C74.2274 53.2812 83.9824 43.4398 95.5329 43.4398C107.087 43.4398 116.489 53.0803 116.489 64.9338H74.2274Z" fill="#2E9AD5"/>
</g>
<defs>
<clipPath id="clip0">
<rect width="178.838" height="180.421" fill="white" transform="translate(0.529846 0.799072)"/>
</clipPath>
</defs>
</svg>
