<svg width="182" height="181" viewBox="0 0 182 181" fill="none" xmlns="http://www.w3.org/2000/svg">
<g clip-path="url(#clip0)">
<path d="M178.017 105.801H168.795L162.983 21.4007C162.873 19.8205 161.56 18.5959 159.975 18.5981H141.933C140.348 18.5959 139.035 19.8205 138.926 21.4007L133.114 105.801H126.899V87.7591C126.899 86.0996 125.553 84.7517 123.893 84.7517C123.208 84.7506 122.545 84.9841 122.012 85.4114L96.8289 105.558V87.7591C96.8289 86.0996 95.4833 84.7517 93.8227 84.7517C93.1388 84.7506 92.4759 84.9841 91.9429 85.4114L66.7595 105.558V87.7591C66.7595 86.0996 65.4139 84.7517 63.7533 84.7517C63.0694 84.7506 62.4054 84.9841 61.8735 85.4114L36.6901 105.558V87.7591C36.689 86.0996 35.3423 84.7528 33.6827 84.7528C33.1354 84.7528 32.6014 84.9015 32.1334 85.1823L2.06285 103.224C1.15876 103.768 0.604858 104.745 0.604858 105.801V177.97C0.604858 179.63 1.95163 180.976 3.61224 180.976H178.017C179.678 180.976 181.025 179.63 181.025 177.97V108.809C181.025 107.147 179.678 105.801 178.017 105.801ZM144.741 24.6118H157.167L162.768 105.801H139.14L144.741 24.6118ZM102.841 174.962V138.878H120.884V174.962H102.841ZM175.011 174.962H126.899V135.871C126.899 134.211 125.552 132.864 123.891 132.864H99.8352C98.1746 132.864 96.8278 134.211 96.8278 135.871V174.962H6.61852V107.504L30.6743 93.0702V111.815C30.6743 113.477 32.0199 114.822 33.6805 114.824C34.3633 114.824 35.0273 114.591 35.5614 114.164L60.7448 94.0172V111.815C60.7448 113.477 62.0893 114.822 63.751 114.824C64.4338 114.824 65.0967 114.591 65.6308 114.165L90.8142 94.0183V111.816C90.8142 113.477 92.1587 114.824 93.8205 114.824C94.5032 114.824 95.1661 114.591 95.7002 114.165L120.884 94.0183V108.809C120.884 110.47 122.23 111.816 123.891 111.816H175.009V174.962H175.011Z" fill="#2E9AD5"/>
<path d="M102.822 6.57097C103.916 7.15681 104.903 7.92104 105.746 8.83174C107.432 10.8877 109.832 12.2267 112.465 12.5846C115.239 12.2311 117.772 10.8337 119.55 8.67537C120.311 7.877 121.163 7.17112 122.089 6.57097C122.708 6.5985 124.329 8.11596 125.201 8.93085C126.823 10.9383 129.153 12.2455 131.71 12.5846C134.663 12.2102 137.362 10.7291 139.264 8.44081C140.001 7.74926 141.116 6.69981 141.332 6.57097C142.947 6.57097 143.317 7.10615 144.31 8.53772C145.615 11.0033 148.165 12.5571 150.956 12.5846C152.615 12.5846 153.962 11.2379 153.962 9.57835C153.962 7.91664 152.615 6.57097 150.956 6.57097C150.353 6.57097 150.237 6.52912 149.26 5.11849C147.663 2.24986 144.614 0.495641 141.332 0.556207C138.9 0.894276 136.686 2.14524 135.145 4.05693C134.146 4.99845 132.472 6.57097 131.837 6.58529C130.905 6.02147 130.055 5.33432 129.304 4.54476C127.496 2.34236 124.914 0.9163 122.088 0.556207C119.481 0.911895 117.107 2.23994 115.439 4.27276C114.595 5.17795 113.62 5.9521 112.549 6.57097C111.547 5.99614 110.635 5.27816 109.843 4.43574C108.086 2.30161 105.584 0.9163 102.842 0.556207C101.182 0.550701 99.8301 1.89196 99.8246 3.55368C99.8191 5.21319 101.161 6.56546 102.822 6.57097Z" fill="#2E9AD5"/>
<path d="M33.683 138.878H21.6535C19.9929 138.878 18.6472 140.225 18.6472 141.884V159.927C18.6472 161.588 19.9929 162.934 21.6535 162.934H33.683C35.3425 162.934 36.6893 161.588 36.6893 159.927V141.884C36.6893 140.225 35.3425 138.878 33.683 138.878ZM30.6745 156.92H24.6609V144.893H30.6745V156.92Z" fill="#2E9AD5"/>
<path d="M57.7387 138.878H45.7103C44.0485 138.878 42.7029 140.225 42.7029 141.884V159.927C42.7029 161.588 44.0485 162.934 45.7103 162.934H57.7387C59.3982 162.934 60.745 161.588 60.745 159.927V141.884C60.745 140.225 59.3982 138.878 57.7387 138.878ZM54.7302 156.92H48.7165V144.893H54.7302V156.92Z" fill="#2E9AD5"/>
<path d="M81.7945 138.878H69.766C68.1043 138.878 66.7587 140.225 66.7587 141.884V159.927C66.7587 161.588 68.1043 162.934 69.766 162.934H81.7945C83.454 162.934 84.8007 161.588 84.8007 159.927V141.884C84.8007 140.225 83.454 138.878 81.7945 138.878ZM78.786 156.92H72.7723V144.893H78.786V156.92Z" fill="#2E9AD5"/>
</g>
<defs>
<clipPath id="clip0">
<rect width="180.421" height="180.421" fill="white" transform="translate(0.604858 0.555176)"/>
</clipPath>
</defs>
</svg>
