<svg width="257" height="94" viewBox="0 0 257 94" fill="none" xmlns="http://www.w3.org/2000/svg">
<path d="M9.80326 73.5535C11.0054 73.5535 12.2992 73.7624 13.6845 74.1802L13.0798 75.8845C11.7604 75.5033 10.6169 75.3127 9.64932 75.3127C8.56447 75.3127 7.64454 75.5436 6.88954 76.0054C6.14187 76.4599 5.76804 77.05 5.76804 77.7757C5.76804 78.1788 5.88899 78.538 6.13088 78.8532C6.37277 79.1684 6.69163 79.4249 7.08746 79.6228C7.48328 79.8208 7.93408 80.0187 8.43986 80.2166C8.94563 80.4072 9.45874 80.5831 9.97918 80.7443C10.5069 80.9056 11.0237 81.1109 11.5295 81.3601C12.0353 81.6093 12.4861 81.8842 12.8819 82.1847C13.2777 82.4779 13.5966 82.8627 13.8385 83.3392C14.0804 83.8157 14.2013 84.3544 14.2013 84.9555C14.2013 85.3733 14.1353 85.7911 14.0034 86.2089C13.8715 86.6194 13.6516 87.0299 13.3437 87.4404C13.0358 87.8435 12.6547 88.1991 12.2002 88.5069C11.7457 88.8148 11.1703 89.064 10.474 89.2546C9.78493 89.4452 9.01527 89.5405 8.16498 89.5405C7.31469 89.5405 6.53037 89.4525 5.81202 89.2766C5.101 89.1007 4.30202 88.8368 3.41508 88.4849L4.0528 86.6707C5.88532 87.3524 7.33301 87.6933 8.39588 87.6933C9.51005 87.6933 10.4153 87.4697 11.1117 87.0226C11.8154 86.5754 12.1672 85.978 12.1672 85.2304C12.1672 84.7319 12.0096 84.3031 11.6944 83.9439C11.3866 83.5774 10.9834 83.2842 10.485 83.0643C9.99384 82.8371 9.44775 82.6282 8.84668 82.4376C8.24561 82.2397 7.64454 82.0308 7.04348 81.8109C6.44974 81.5836 5.90365 81.3234 5.4052 81.0302C4.91408 80.737 4.51093 80.3412 4.19573 79.8427C3.88787 79.3443 3.73394 78.7579 3.73394 78.0835C3.73394 77.4825 3.87687 76.907 4.16275 76.3573C4.45595 75.8075 4.85911 75.3274 5.37221 74.9169C5.88532 74.4991 6.5267 74.1693 7.29636 73.9274C8.06602 73.6781 8.90165 73.5535 9.80326 73.5535ZM22.4037 78.2485C22.9315 78.2485 23.4042 78.3144 23.8221 78.4464C24.2472 78.571 24.599 78.7322 24.8776 78.9301C25.1561 79.1281 25.3944 79.3883 25.5923 79.7108C25.7975 80.026 25.9515 80.3339 26.0541 80.6344C26.164 80.9276 26.2483 81.2831 26.307 81.7009C26.3656 82.1187 26.4023 82.4816 26.4169 82.7894C26.4316 83.0973 26.4389 83.4601 26.4389 83.878V84.7356H18.9732C18.9732 85.1314 19.0612 85.5272 19.2371 85.9231C19.4203 86.3116 19.6732 86.6707 19.9958 87.0006C20.3256 87.3231 20.7544 87.587 21.2822 87.7922C21.8173 87.9975 22.4074 88.1001 23.0524 88.1001C23.8147 88.1001 24.6394 87.9682 25.5263 87.7043L25.8452 88.9357C24.665 89.3389 23.5069 89.5405 22.3707 89.5405C21.5717 89.5405 20.8607 89.4342 20.2376 89.2216C19.6219 89.009 19.1235 88.7341 18.7423 88.397C18.3685 88.0525 18.0606 87.642 17.8187 87.1655C17.5768 86.6891 17.4082 86.2163 17.3129 85.7471C17.225 85.2707 17.181 84.7686 17.181 84.2408C17.181 83.4272 17.28 82.6832 17.4779 82.0088C17.6758 81.3344 17.9433 80.77 18.2805 80.3155C18.6177 79.8537 19.0099 79.4652 19.457 79.1501C19.9115 78.8349 20.3842 78.6076 20.8754 78.4684C21.3738 78.3218 21.8832 78.2485 22.4037 78.2485ZM22.0189 79.8098C21.3738 79.8098 20.8167 79.9893 20.3476 80.3485C19.8858 80.7004 19.5486 81.1402 19.336 81.6679C19.1235 82.1957 19.0172 82.7638 19.0172 83.3722H24.6907C24.6907 80.9972 23.8001 79.8098 22.0189 79.8098ZM31.4527 79.271C32.3689 78.5893 33.3805 78.2485 34.4873 78.2485C35.2497 78.2485 35.9424 78.3914 36.5654 78.6773L36.0157 80.1176C35.4439 79.8977 34.8502 79.7878 34.2345 79.7878C33.3182 79.7878 32.4569 80.0407 31.6506 80.5464V89.3206H29.8474V78.4574H31.1118L31.4527 79.271ZM46.8899 78.4574L43.0746 89.3206H41.2054L37.4011 78.4574H39.3802L42.1949 87.5283L45.0207 78.4574H46.8899ZM49.4297 73.6965H51.5628V75.7745H49.4297V73.6965ZM49.5947 78.4574H51.3979V89.3206H49.5947V78.4574ZM54.8064 84.1418C54.8064 83.2842 54.909 82.5146 55.1142 81.8329C55.3195 81.1438 55.5907 80.5831 55.9279 80.1506C56.2724 79.7108 56.6755 79.348 57.1373 79.0621C57.5991 78.7689 58.0719 78.5636 58.5557 78.4464C59.0395 78.3218 59.5453 78.2594 60.073 78.2594C61.1139 78.2594 62.1291 78.4757 63.1187 78.9082L62.6789 80.2276C61.8652 79.949 61.0699 79.8098 60.2929 79.8098C59.9118 79.8098 59.5526 79.8464 59.2154 79.9197C58.8782 79.9857 58.541 80.1103 58.2039 80.2935C57.874 80.4768 57.5881 80.715 57.3462 81.0082C57.1117 81.2941 56.9211 81.6716 56.7745 82.1407C56.6279 82.6099 56.5546 83.1486 56.5546 83.757C56.5546 84.4241 56.6316 85.0141 56.7855 85.5272C56.9394 86.033 57.141 86.4435 57.3902 86.7587C57.6394 87.0739 57.9363 87.3304 58.2808 87.5283C58.6327 87.7263 58.9845 87.8655 59.3364 87.9462C59.6955 88.0195 60.0804 88.0561 60.4909 88.0561C61.1799 88.0561 61.8689 87.9352 62.5579 87.6933L62.9977 88.9357C61.9569 89.3389 60.9123 89.5405 59.8641 89.5405C59.3803 89.5405 58.9149 89.4928 58.4677 89.3975C58.0279 89.3022 57.5771 89.13 57.1153 88.8808C56.6609 88.6242 56.2651 88.3017 55.9279 87.9132C55.598 87.5247 55.3268 87.0079 55.1142 86.3629C54.909 85.7105 54.8064 84.9701 54.8064 84.1418ZM66.2083 73.6965H68.3414V75.7745H66.2083V73.6965ZM66.3733 78.4574H68.1765V89.3206H66.3733V78.4574ZM76.8736 78.2485C78.3763 78.2485 79.6114 78.7286 80.579 79.6888C81.5539 80.6491 82.0413 81.9758 82.0413 83.6691C82.0413 85.4649 81.5429 86.8943 80.546 87.9572C79.5564 89.0127 78.2737 89.5405 76.6977 89.5405C75.195 89.5405 73.9672 89.0457 73.0143 88.0561C72.0614 87.0592 71.5849 85.7105 71.5849 84.0099C71.5849 82.258 72.0687 80.8616 73.0363 79.8208C74.0112 78.7726 75.2903 78.2485 76.8736 78.2485ZM76.7197 79.7878C75.8181 79.7878 75.0301 80.1359 74.3557 80.8323C73.6814 81.5287 73.3442 82.4852 73.3442 83.702C73.3442 84.9115 73.674 85.9304 74.3337 86.7587C74.9934 87.587 75.8474 88.0011 76.8956 88.0011C77.8632 88.0011 78.6695 87.6346 79.3145 86.9016C79.9596 86.1686 80.2821 85.212 80.2821 84.0319C80.2821 83.3575 80.1758 82.7455 79.9632 82.1957C79.758 81.6459 79.4831 81.1988 79.1386 80.8543C78.8014 80.5098 78.4239 80.2459 78.0061 80.0626C77.5883 79.8794 77.1595 79.7878 76.7197 79.7878ZM89.9688 78.2485C90.1228 78.2485 90.2657 78.2521 90.3976 78.2594C90.5369 78.2594 90.6688 78.2668 90.7935 78.2814C90.9254 78.2961 91.0354 78.3071 91.1233 78.3144C91.2186 78.3218 91.3249 78.3364 91.4422 78.3584C91.5668 78.3804 91.6547 78.3987 91.7061 78.4134C91.7647 78.4207 91.8563 78.4427 91.9809 78.4793C92.1129 78.5087 92.1935 78.527 92.2228 78.5343C92.2521 78.5417 92.3364 78.5673 92.4757 78.6113C92.6223 78.6553 92.7066 78.6809 92.7286 78.6883L92.2668 80.0626C91.2846 79.7914 90.4196 79.6558 89.672 79.6558C89.2395 79.6558 88.8546 79.6998 88.5175 79.7878C88.1876 79.8757 87.9311 79.982 87.7478 80.1066C87.5719 80.2312 87.4253 80.3778 87.308 80.5464C87.198 80.7077 87.1247 80.8506 87.0881 80.9752C87.0588 81.0999 87.0441 81.2208 87.0441 81.3381C87.0441 81.6386 87.198 81.9062 87.5059 82.1407C87.8211 82.3753 88.2096 82.5659 88.6714 82.7125C89.1405 82.8591 89.6463 83.035 90.1887 83.2402C90.7312 83.4382 91.2333 83.6507 91.6951 83.878C92.1642 84.0979 92.5527 84.4094 92.8605 84.8125C93.1757 85.2157 93.3333 85.6812 93.3333 86.2089C93.3333 86.5095 93.293 86.8027 93.2124 87.0885C93.1391 87.3671 92.9925 87.6603 92.7726 87.9682C92.56 88.276 92.2815 88.5436 91.937 88.7708C91.5998 88.9907 91.1453 89.174 90.5736 89.3206C90.0018 89.4672 89.3458 89.5405 88.6054 89.5405C87.4839 89.5405 86.2525 89.2656 84.9111 88.7158L85.4168 87.3524C86.1718 87.631 86.7876 87.8289 87.264 87.9462C87.7478 88.0634 88.2206 88.1221 88.6824 88.1221C90.4709 88.1221 91.3652 87.554 91.3652 86.4178C91.3652 86.1686 91.2772 85.9487 91.1013 85.7581C90.9254 85.5675 90.6908 85.4136 90.3976 85.2963C90.1044 85.1717 89.7709 85.0471 89.3971 84.9225C89.0306 84.7906 88.6531 84.6696 88.2646 84.5597C87.8834 84.4497 87.5059 84.3068 87.1321 84.1309C86.7656 83.9476 86.4357 83.7497 86.1425 83.5371C85.8493 83.3172 85.6147 83.035 85.4388 82.6905C85.2629 82.346 85.1749 81.9575 85.1749 81.525C85.1749 81.2611 85.2153 80.9936 85.2959 80.7224C85.3838 80.4438 85.5414 80.1543 85.7687 79.8537C86.0032 79.5459 86.2928 79.2783 86.6373 79.0511C86.9818 78.8165 87.4399 78.626 88.0117 78.4793C88.5908 78.3254 89.2431 78.2485 89.9688 78.2485ZM104.328 73.6965H106.198V89.3206H104.328V73.6965ZM110.816 78.4574H112.08L112.476 79.3809C113.876 78.6186 115.151 78.2375 116.302 78.2375C116.896 78.2375 117.413 78.3327 117.853 78.5233C118.292 78.7066 118.633 78.9411 118.875 79.227C119.117 79.5056 119.308 79.8611 119.447 80.2935C119.593 80.7187 119.685 81.1255 119.722 81.514C119.766 81.9025 119.788 82.346 119.788 82.8444V89.3206H117.984V82.7235C117.984 80.8176 117.163 79.8647 115.522 79.8647C114.671 79.8647 113.704 80.1469 112.619 80.7114V89.3206H110.816V78.4574ZM123.196 84.0759C123.196 83.1376 123.328 82.2947 123.592 81.547C123.856 80.7993 124.219 80.1873 124.68 79.7108C125.142 79.2343 125.681 78.8715 126.297 78.6223C126.92 78.3657 127.591 78.2375 128.309 78.2375C129.174 78.2375 130.05 78.4317 130.937 78.8202V72.7069H132.74V89.3206H131.486L131.19 88.6389C130.171 89.2399 129.108 89.5405 128.001 89.5405C127.547 89.5405 127.103 89.4855 126.671 89.3755C126.238 89.2656 125.809 89.075 125.384 88.8038C124.959 88.5326 124.585 88.1954 124.263 87.7922C123.947 87.3817 123.691 86.8576 123.493 86.2199C123.295 85.5822 123.196 84.8675 123.196 84.0759ZM128.595 88.0561C129.394 88.0561 130.174 87.8509 130.937 87.4404V80.1836C130.152 79.8318 129.364 79.6558 128.573 79.6558C128.236 79.6558 127.909 79.6925 127.594 79.7658C127.279 79.8391 126.956 79.971 126.627 80.1616C126.297 80.3522 126.011 80.5977 125.769 80.8983C125.534 81.1988 125.34 81.5983 125.186 82.0967C125.032 82.5879 124.955 83.1523 124.955 83.79C124.955 84.4497 125.036 85.0398 125.197 85.5602C125.359 86.0733 125.564 86.4838 125.813 86.7917C126.062 87.0995 126.355 87.3524 126.693 87.5503C127.03 87.7483 127.352 87.8839 127.66 87.9572C127.968 88.0231 128.28 88.0561 128.595 88.0561ZM143.988 78.4574H145.791V89.3206H144.527L144.142 88.408C142.756 89.163 141.477 89.5405 140.305 89.5405C139.711 89.5405 139.194 89.4488 138.754 89.2656C138.314 89.075 137.974 88.8404 137.732 88.5619C137.49 88.2833 137.296 87.9315 137.149 87.5064C137.002 87.0739 136.907 86.6634 136.863 86.2749C136.826 85.8864 136.808 85.4429 136.808 84.9445V78.4574H138.611V85.0764C138.611 86.9749 139.436 87.9242 141.085 87.9242C141.936 87.9242 142.903 87.642 143.988 87.0775V78.4574ZM154.268 78.2485C154.422 78.2485 154.565 78.2521 154.697 78.2594C154.836 78.2594 154.968 78.2668 155.093 78.2814C155.225 78.2961 155.335 78.3071 155.423 78.3144C155.518 78.3218 155.624 78.3364 155.742 78.3584C155.866 78.3804 155.954 78.3987 156.006 78.4134C156.064 78.4207 156.156 78.4427 156.281 78.4793C156.412 78.5087 156.493 78.527 156.522 78.5343C156.552 78.5417 156.636 78.5673 156.775 78.6113C156.922 78.6553 157.006 78.6809 157.028 78.6883L156.566 80.0626C155.584 79.7914 154.719 79.6558 153.972 79.6558C153.539 79.6558 153.154 79.6998 152.817 79.7878C152.487 79.8757 152.231 79.982 152.047 80.1066C151.871 80.2312 151.725 80.3778 151.608 80.5464C151.498 80.7077 151.424 80.8506 151.388 80.9752C151.358 81.0999 151.344 81.2208 151.344 81.3381C151.344 81.6386 151.498 81.9062 151.805 82.1407C152.121 82.3753 152.509 82.5659 152.971 82.7125C153.44 82.8591 153.946 83.035 154.488 83.2402C155.031 83.4382 155.533 83.6507 155.995 83.878C156.464 84.0979 156.852 84.4094 157.16 84.8125C157.475 85.2157 157.633 85.6812 157.633 86.2089C157.633 86.5095 157.593 86.8027 157.512 87.0885C157.439 87.3671 157.292 87.6603 157.072 87.9682C156.86 88.276 156.581 88.5436 156.237 88.7708C155.899 88.9907 155.445 89.174 154.873 89.3206C154.301 89.4672 153.645 89.5405 152.905 89.5405C151.783 89.5405 150.552 89.2656 149.211 88.7158L149.716 87.3524C150.471 87.631 151.087 87.8289 151.564 87.9462C152.047 88.0634 152.52 88.1221 152.982 88.1221C154.771 88.1221 155.665 87.554 155.665 86.4178C155.665 86.1686 155.577 85.9487 155.401 85.7581C155.225 85.5675 154.99 85.4136 154.697 85.2963C154.404 85.1717 154.07 85.0471 153.697 84.9225C153.33 84.7906 152.953 84.6696 152.564 84.5597C152.183 84.4497 151.805 84.3068 151.432 84.1309C151.065 83.9476 150.735 83.7497 150.442 83.5371C150.149 83.3172 149.914 83.035 149.738 82.6905C149.562 82.346 149.475 81.9575 149.475 81.525C149.475 81.2611 149.515 80.9936 149.595 80.7224C149.683 80.4438 149.841 80.1543 150.068 79.8537C150.303 79.5459 150.592 79.2783 150.937 79.0511C151.281 78.8165 151.74 78.626 152.311 78.4793C152.89 78.3254 153.543 78.2485 154.268 78.2485ZM166.704 89.1336C165.641 89.4049 164.813 89.5405 164.219 89.5405C163.625 89.5405 163.123 89.4452 162.713 89.2546C162.302 89.064 161.991 88.7928 161.778 88.4409C161.566 88.0891 161.412 87.7116 161.316 87.3084C161.228 86.898 161.184 86.4288 161.184 85.9011V79.8757H159.722V78.4574H161.184V75.3457H162.988V78.4574H166.297V79.8757H162.988V85.8791C162.988 87.3817 163.581 88.1331 164.769 88.1331C164.981 88.1331 165.542 88.0561 166.451 87.9022L166.704 89.1336ZM171.069 79.271C171.985 78.5893 172.997 78.2485 174.104 78.2485C174.866 78.2485 175.559 78.3914 176.182 78.6773L175.632 80.1176C175.06 79.8977 174.466 79.7878 173.851 79.7878C172.934 79.7878 172.073 80.0407 171.267 80.5464V89.3206H169.464V78.4574H170.728L171.069 79.271ZM178.117 73.6965H180.25V75.7745H178.117V73.6965ZM178.282 78.4574H180.085V89.3206H178.282V78.4574ZM187.639 78.2485C188.445 78.2485 189.127 78.3437 189.684 78.5343C190.248 78.7176 190.681 78.9888 190.981 79.348C191.289 79.7071 191.509 80.1066 191.641 80.5464C191.773 80.9862 191.839 81.492 191.839 82.0638V89.3206H190.563L190.146 88.331C189.259 89.1373 188.24 89.5405 187.089 89.5405C186.063 89.5405 185.194 89.2326 184.483 88.6169C183.772 87.9938 183.417 87.2681 183.417 86.4398C183.417 86 183.497 85.6042 183.658 85.2524C183.82 84.9005 184.051 84.6073 184.351 84.3727C184.659 84.1382 185.007 83.9403 185.396 83.779C185.784 83.6104 186.235 83.4821 186.748 83.3942C187.268 83.3062 187.789 83.2439 188.309 83.2073C188.83 83.1706 189.402 83.1523 190.025 83.1523V82.2947C190.025 82.0454 190.014 81.8292 189.992 81.6459C189.977 81.4627 189.918 81.2428 189.816 80.9862C189.713 80.7297 189.574 80.5208 189.398 80.3595C189.222 80.1909 188.958 80.048 188.606 79.9307C188.254 79.8061 187.837 79.7438 187.353 79.7438C186.605 79.7438 185.638 79.9087 184.45 80.2386L184.109 78.9192C185.311 78.472 186.488 78.2485 187.639 78.2485ZM190.025 84.5157H189.354C188.936 84.5157 188.573 84.523 188.265 84.5377C187.958 84.5523 187.595 84.5963 187.177 84.6696C186.766 84.7356 186.429 84.8309 186.165 84.9555C185.901 85.0801 185.674 85.2633 185.484 85.5052C185.3 85.7398 185.209 86.022 185.209 86.3519C185.209 86.8137 185.44 87.2241 185.901 87.5833C186.371 87.9425 186.928 88.1221 187.573 88.1221C188.518 88.1221 189.336 87.7519 190.025 87.0116V84.5157ZM196.028 72.7069H197.831V89.3206H196.028V72.7069ZM206.682 78.2485C207.21 78.2485 207.683 78.3144 208.101 78.4464C208.526 78.571 208.878 78.7322 209.156 78.9301C209.435 79.1281 209.673 79.3883 209.871 79.7108C210.076 80.026 210.23 80.3339 210.333 80.6344C210.443 80.9276 210.527 81.2831 210.586 81.7009C210.644 82.1187 210.681 82.4816 210.695 82.7894C210.71 83.0973 210.717 83.4601 210.717 83.878V84.7356H203.252C203.252 85.1314 203.34 85.5272 203.516 85.9231C203.699 86.3116 203.952 86.6707 204.274 87.0006C204.604 87.3231 205.033 87.587 205.561 87.7922C206.096 87.9975 206.686 88.1001 207.331 88.1001C208.093 88.1001 208.918 87.9682 209.805 87.7043L210.124 88.9357C208.944 89.3389 207.785 89.5405 206.649 89.5405C205.85 89.5405 205.139 89.4342 204.516 89.2216C203.9 89.009 203.402 88.7341 203.021 88.397C202.647 88.0525 202.339 87.642 202.097 87.1655C201.855 86.6891 201.687 86.2163 201.591 85.7471C201.504 85.2707 201.46 84.7686 201.46 84.2408C201.46 83.4272 201.559 82.6832 201.756 82.0088C201.954 81.3344 202.222 80.77 202.559 80.3155C202.896 79.8537 203.288 79.4652 203.736 79.1501C204.19 78.8349 204.663 78.6076 205.154 78.4684C205.652 78.3218 206.162 78.2485 206.682 78.2485ZM206.297 79.8098C205.652 79.8098 205.095 79.9893 204.626 80.3485C204.164 80.7004 203.827 81.1402 203.615 81.6679C203.402 82.1957 203.296 82.7638 203.296 83.3722H208.969C208.969 80.9972 208.079 79.8098 206.297 79.8098ZM218.634 78.2485C218.788 78.2485 218.931 78.2521 219.063 78.2594C219.202 78.2594 219.334 78.2668 219.459 78.2814C219.591 78.2961 219.7 78.3071 219.788 78.3144C219.884 78.3218 219.99 78.3364 220.107 78.3584C220.232 78.3804 220.32 78.3987 220.371 78.4134C220.43 78.4207 220.521 78.4427 220.646 78.4793C220.778 78.5087 220.859 78.527 220.888 78.5343C220.917 78.5417 221.002 78.5673 221.141 78.6113C221.287 78.6553 221.372 78.6809 221.394 78.6883L220.932 80.0626C219.95 79.7914 219.085 79.6558 218.337 79.6558C217.905 79.6558 217.52 79.6998 217.183 79.7878C216.853 79.8757 216.596 79.982 216.413 80.1066C216.237 80.2312 216.09 80.3778 215.973 80.5464C215.863 80.7077 215.79 80.8506 215.753 80.9752C215.724 81.0999 215.709 81.2208 215.709 81.3381C215.709 81.6386 215.863 81.9062 216.171 82.1407C216.486 82.3753 216.875 82.5659 217.337 82.7125C217.806 82.8591 218.311 83.035 218.854 83.2402C219.396 83.4382 219.898 83.6507 220.36 83.878C220.829 84.0979 221.218 84.4094 221.526 84.8125C221.841 85.2157 221.998 85.6812 221.998 86.2089C221.998 86.5095 221.958 86.8027 221.878 87.0885C221.804 87.3671 221.658 87.6603 221.438 87.9682C221.225 88.276 220.947 88.5436 220.602 88.7708C220.265 88.9907 219.81 89.174 219.239 89.3206C218.667 89.4672 218.011 89.5405 217.271 89.5405C216.149 89.5405 214.918 89.2656 213.576 88.7158L214.082 87.3524C214.837 87.631 215.453 87.8289 215.929 87.9462C216.413 88.0634 216.886 88.1221 217.348 88.1221C219.136 88.1221 220.03 87.554 220.03 86.4178C220.03 86.1686 219.942 85.9487 219.766 85.7581C219.591 85.5675 219.356 85.4136 219.063 85.2963C218.77 85.1717 218.436 85.0471 218.062 84.9225C217.696 84.7906 217.318 84.6696 216.93 84.5597C216.549 84.4497 216.171 84.3068 215.797 84.1309C215.431 83.9476 215.101 83.7497 214.808 83.5371C214.514 83.3172 214.28 83.035 214.104 82.6905C213.928 82.346 213.84 81.9575 213.84 81.525C213.84 81.2611 213.88 80.9936 213.961 80.7224C214.049 80.4438 214.207 80.1543 214.434 79.8537C214.668 79.5459 214.958 79.2783 215.302 79.0511C215.647 78.8165 216.105 78.626 216.677 78.4793C217.256 78.3254 217.908 78.2485 218.634 78.2485Z" fill="#006CA7"/>
<path d="M4.62532 62.4072V5.05928H17.9962V27.9366H37.0864V5.05928H50.4573V62.4072H37.0864V39.9163H17.9962V62.4072H4.62532ZM55.7854 62.4072L73.2525 5.05928H89.9468L107.414 62.4072H93.5794L90.6424 51.9733H72.4024L69.5427 62.4072H55.7854ZM75.4939 39.9936H87.5509L81.5224 16.498L75.4939 39.9936ZM169.019 62.4072L186.486 5.05928H203.18L220.647 62.4072H206.813L203.876 51.9733H185.636L182.776 62.4072H169.019ZM188.727 39.9936H200.784L194.756 16.498L188.727 39.9936Z" fill="#006CA7"/>
<path d="M139.108 61.8754C135.341 62.086 129.447 61.8584 129.447 61.8584H120.868V49.2001C123.29 49.4577 126.124 49.6381 129.37 49.7411C132.616 49.8442 135.63 49.8957 138.413 49.8957C141.144 49.8957 143.23 49.5608 144.673 48.891C146.167 48.2211 146.915 46.9588 146.915 45.1038V43.6354C146.915 42.2442 146.451 41.1879 145.523 40.4665C144.647 39.7452 143.514 39.3845 142.123 39.3845H137.64C131.869 39.3845 127.489 38.1221 124.501 35.5974C121.512 33.0726 120.018 28.8218 120.018 22.8448V20.1397C120.018 14.5234 121.641 10.3756 124.887 7.69629C128.185 4.96544 132.951 3.60001 139.186 3.60001C142.535 3.60001 148.847 3.59998 148.847 3.59998C148.847 3.59998 154.592 3.44813 156.807 3.96339V15.8116C154.437 15.657 151.784 15.7343 148.847 15.5797C145.91 15.4251 143.23 15.5797 140.809 15.5797C138.336 15.5797 136.352 15.9146 134.858 16.5844C133.415 17.2543 132.693 18.6712 132.693 20.8353V21.9173C132.693 25.1119 134.626 26.7092 138.49 26.7092H143.823C147.327 26.7092 150.238 27.379 152.557 28.7187C154.927 30.0069 156.679 31.8102 157.812 34.1289C158.997 36.396 159.59 38.9723 159.59 41.8577V44.7174C159.59 49.4577 158.74 53.0645 157.039 55.5378C155.39 58.011 153.02 59.6856 149.929 60.5615C146.837 61.4375 143.358 61.6379 139.108 61.8754Z" fill="#006CA7"/>
<rect x="161.724" y="46.73" width="19.9604" height="4.80375" rx="2.40187" transform="rotate(-180 161.724 46.73)" fill="#006CA7"/>
<rect x="135.629" y="23.512" width="18.4069" height="5.05026" rx="2.52513" transform="rotate(-180 135.629 23.512)" fill="#006CA7"/>
<rect width="17.5623" height="4.80351" rx="2.40175" transform="matrix(-0.0206058 -0.999788 0.999919 -0.0127463 154.465 18.2449)" fill="#006CA7"/>
<rect width="17.5623" height="4.80351" rx="2.40175" transform="matrix(-0.0206058 -0.999788 0.999919 -0.0127463 118.912 65.0366)" fill="#006CA7"/>
<rect x="162.131" y="49.863" width="22.3295" height="3.13325" rx="1.56663" transform="rotate(-180 162.131 49.863)" fill="white"/>
<rect x="141.763" y="26.8059" width="24.5406" height="3.29404" rx="1.64702" transform="rotate(-180 141.763 26.8059)" fill="white"/>
<rect width="17.5623" height="3.1331" rx="1.56655" transform="matrix(-0.0206058 -0.999788 0.999919 -0.0127463 151.331 18.2896)" fill="white"/>
<rect width="17.5623" height="3.1331" rx="1.56655" transform="matrix(-0.0206058 -0.999788 0.999919 -0.0127463 115.776 64.4211)" fill="white"/>
<rect x="162.131" y="41.9265" width="22.3295" height="2.51516" rx="1.25758" transform="rotate(-180 162.131 41.9265)" fill="white"/>
<rect x="140.699" y="18.4624" width="23.4754" height="2.64424" rx="1.32212" transform="rotate(-180 140.699 18.4624)" fill="white"/>
<rect width="17.5623" height="2.51504" rx="1.25752" transform="matrix(-0.0206058 -0.999788 0.999919 -0.0127463 159.269 18.1892)" fill="white"/>
<rect width="17.5623" height="2.51504" rx="1.25752" transform="matrix(-0.0206058 -0.999788 0.999919 -0.0127463 123.713 64.3206)" fill="white"/>
</svg>
