<svg width="258" height="95" viewBox="0 0 258 95" fill="none" xmlns="http://www.w3.org/2000/svg">
<path d="M10.4573 73.8318C11.6594 73.8318 12.9532 74.0408 14.3386 74.4586L13.7339 76.1628C12.4144 75.7817 11.2709 75.5911 10.3034 75.5911C9.21852 75.5911 8.2986 75.822 7.5436 76.2838C6.79593 76.7382 6.42209 77.3283 6.42209 78.054C6.42209 78.4571 6.54304 78.8163 6.78493 79.1315C7.02682 79.4467 7.34568 79.7033 7.74151 79.9012C8.13733 80.0991 8.58813 80.297 9.09391 80.4949C9.59969 80.6855 10.1128 80.8614 10.6332 81.0227C11.161 81.1839 11.6778 81.3892 12.1835 81.6384C12.6893 81.8876 13.1401 82.1625 13.5359 82.463C13.9318 82.7562 14.2506 83.1411 14.4925 83.6175C14.7344 84.094 14.8554 84.6327 14.8554 85.2338C14.8554 85.6516 14.7894 86.0694 14.6575 86.4873C14.5255 86.8977 14.3056 87.3082 13.9977 87.7187C13.6899 88.1219 13.3087 88.4774 12.8542 88.7852C12.3998 89.0931 11.8244 89.3423 11.128 89.5329C10.439 89.7235 9.66932 89.8188 8.81903 89.8188C7.96874 89.8188 7.18442 89.7308 6.46607 89.5549C5.75505 89.379 4.95607 89.1151 4.06913 88.7632L4.70685 86.949C6.53937 87.6307 7.98707 87.9716 9.04993 87.9716C10.1641 87.9716 11.0694 87.748 11.7657 87.3009C12.4694 86.8538 12.8213 86.2564 12.8213 85.5087C12.8213 85.0102 12.6637 84.5814 12.3485 84.2223C12.0406 83.8557 11.6375 83.5625 11.139 83.3426C10.6479 83.1154 10.1018 82.9065 9.50073 82.7159C8.89966 82.518 8.2986 82.3091 7.69753 82.0892C7.10379 81.862 6.5577 81.6017 6.05925 81.3085C5.56814 81.0153 5.16498 80.6195 4.84979 80.1211C4.54192 79.6226 4.38799 79.0362 4.38799 78.3618C4.38799 77.7608 4.53093 77.1854 4.8168 76.6356C5.11 76.0858 5.51316 75.6057 6.02627 75.1952C6.53937 74.7774 7.18076 74.4476 7.95042 74.2057C8.72008 73.9565 9.55571 73.8318 10.4573 73.8318ZM23.0577 78.5268C23.5855 78.5268 24.0583 78.5927 24.4761 78.7247C24.9013 78.8493 25.2531 79.0106 25.5316 79.2085C25.8102 79.4064 26.0484 79.6666 26.2463 79.9891C26.4516 80.3043 26.6055 80.6122 26.7081 80.9127C26.8181 81.2059 26.9024 81.5614 26.961 81.9792C27.0197 82.3971 27.0563 82.7599 27.071 83.0678C27.0856 83.3756 27.093 83.7385 27.093 84.1563V85.0139H19.6273C19.6273 85.4097 19.7152 85.8056 19.8911 86.2014C20.0744 86.5899 20.3273 86.949 20.6498 87.2789C20.9797 87.6014 21.4085 87.8653 21.9362 88.0706C22.4713 88.2758 23.0614 88.3784 23.7065 88.3784C24.4688 88.3784 25.2934 88.2465 26.1804 87.9826L26.4992 89.214C25.3191 89.6172 24.1609 89.8188 23.0248 89.8188C22.2258 89.8188 21.5148 89.7125 20.8917 89.4999C20.276 89.2873 19.7775 89.0125 19.3964 88.6753C19.0225 88.3308 18.7147 87.9203 18.4728 87.4438C18.2309 86.9674 18.0623 86.4946 17.967 86.0255C17.879 85.549 17.835 85.0469 17.835 84.5191C17.835 83.7055 17.934 82.9615 18.1319 82.2871C18.3298 81.6127 18.5974 81.0483 18.9346 80.5939C19.2717 80.1321 19.6639 79.7436 20.111 79.4284C20.5655 79.1132 21.0383 78.8859 21.5294 78.7467C22.0279 78.6001 22.5373 78.5268 23.0577 78.5268ZM22.6729 80.0881C22.0279 80.0881 21.4708 80.2677 21.0016 80.6268C20.5399 80.9787 20.2027 81.4185 19.9901 81.9463C19.7775 82.474 19.6712 83.0421 19.6712 83.6505H25.3447C25.3447 81.2756 24.4541 80.0881 22.6729 80.0881ZM32.1067 79.5493C33.023 78.8676 34.0346 78.5268 35.1414 78.5268C35.9037 78.5268 36.5964 78.6697 37.2195 78.9556L36.6697 80.3959C36.098 80.176 35.5042 80.0661 34.8885 80.0661C33.9722 80.0661 33.111 80.319 32.3047 80.8248V89.5989H30.5014V78.7357H31.7659L32.1067 79.5493ZM47.5439 78.7357L43.7286 89.5989H41.8594L38.0551 78.7357H40.0342L42.849 87.8067L45.6747 78.7357H47.5439ZM50.0838 73.9748H52.2169V76.0529H50.0838V73.9748ZM50.2487 78.7357H52.0519V89.5989H50.2487V78.7357ZM55.4604 84.4202C55.4604 83.5625 55.563 82.7929 55.7683 82.1112C55.9735 81.4222 56.2447 80.8614 56.5819 80.4289C56.9264 79.9891 57.3296 79.6263 57.7914 79.3404C58.2532 79.0472 58.726 78.842 59.2098 78.7247C59.6935 78.6001 60.1993 78.5378 60.7271 78.5378C61.768 78.5378 62.7832 78.754 63.7727 79.1865L63.3329 80.5059C62.5193 80.2274 61.724 80.0881 60.947 80.0881C60.5658 80.0881 60.2067 80.1247 59.8695 80.198C59.5323 80.264 59.1951 80.3886 58.8579 80.5719C58.5281 80.7551 58.2422 80.9933 58.0003 81.2866C57.7657 81.5724 57.5752 81.9499 57.4285 82.4191C57.2819 82.8882 57.2086 83.4269 57.2086 84.0353C57.2086 84.7024 57.2856 85.2924 57.4395 85.8056C57.5935 86.3113 57.7951 86.7218 58.0443 87.037C58.2935 87.3522 58.5904 87.6088 58.9349 87.8067C59.2867 88.0046 59.6386 88.1439 59.9904 88.2245C60.3496 88.2978 60.7344 88.3344 61.1449 88.3344C61.8339 88.3344 62.523 88.2135 63.212 87.9716L63.6518 89.214C62.6109 89.6172 61.5664 89.8188 60.5182 89.8188C60.0344 89.8188 59.5689 89.7711 59.1218 89.6758C58.682 89.5806 58.2312 89.4083 57.7694 89.1591C57.3149 88.9025 56.9191 88.58 56.5819 88.1915C56.2521 87.803 55.9809 87.2862 55.7683 86.6412C55.563 85.9888 55.4604 85.2485 55.4604 84.4202ZM66.8624 73.9748H68.9954V76.0529H66.8624V73.9748ZM67.0273 78.7357H68.8305V89.5989H67.0273V78.7357ZM77.5277 78.5268C79.0303 78.5268 80.2655 79.0069 81.233 79.9671C82.2079 80.9274 82.6954 82.2541 82.6954 83.9474C82.6954 85.7432 82.1969 87.1726 81.2 88.2355C80.2105 89.291 78.9277 89.8188 77.3517 89.8188C75.8491 89.8188 74.6213 89.324 73.6684 88.3344C72.7155 87.3375 72.239 85.9888 72.239 84.2882C72.239 82.5363 72.7228 81.1399 73.6904 80.0991C74.6653 79.0509 75.9444 78.5268 77.5277 78.5268ZM77.3737 80.0661C76.4721 80.0661 75.6841 80.4143 75.0098 81.1106C74.3354 81.807 73.9982 82.7636 73.9982 83.9804C73.9982 85.1898 74.3281 86.2087 74.9878 87.037C75.6475 87.8653 76.5014 88.2795 77.5497 88.2795C78.5172 88.2795 79.3235 87.913 79.9686 87.1799C80.6136 86.4469 80.9362 85.4904 80.9362 84.3102C80.9362 83.6358 80.8299 83.0238 80.6173 82.474C80.4121 81.9243 80.1372 81.4771 79.7927 81.1326C79.4555 80.7881 79.078 80.5242 78.6602 80.341C78.2423 80.1577 77.8135 80.0661 77.3737 80.0661ZM90.6229 78.5268C90.7768 78.5268 90.9197 78.5304 91.0517 78.5378C91.191 78.5378 91.3229 78.5451 91.4475 78.5598C91.5795 78.5744 91.6894 78.5854 91.7774 78.5927C91.8727 78.6001 91.9789 78.6147 92.0962 78.6367C92.2208 78.6587 92.3088 78.677 92.3601 78.6917C92.4187 78.699 92.5104 78.721 92.635 78.7577C92.7669 78.787 92.8476 78.8053 92.8769 78.8126C92.9062 78.82 92.9905 78.8456 93.1298 78.8896C93.2764 78.9336 93.3607 78.9592 93.3827 78.9666L92.9209 80.341C91.9386 80.0698 91.0737 79.9341 90.326 79.9341C89.8935 79.9341 89.5087 79.9781 89.1715 80.0661C88.8417 80.1541 88.5851 80.2603 88.4019 80.3849C88.2259 80.5096 88.0793 80.6562 87.9621 80.8248C87.8521 80.986 87.7788 81.129 87.7421 81.2536C87.7128 81.3782 87.6982 81.4991 87.6982 81.6164C87.6982 81.9169 87.8521 82.1845 88.16 82.4191C88.4752 82.6536 88.8637 82.8442 89.3254 82.9908C89.7946 83.1374 90.3004 83.3133 90.8428 83.5186C91.3852 83.7165 91.8873 83.929 92.3491 84.1563C92.8182 84.3762 93.2067 84.6877 93.5146 85.0909C93.8298 85.494 93.9874 85.9595 93.9874 86.4873C93.9874 86.7878 93.9471 87.081 93.8664 87.3669C93.7931 87.6454 93.6465 87.9386 93.4266 88.2465C93.2141 88.5543 92.9355 88.8219 92.591 89.0491C92.2538 89.269 91.7994 89.4523 91.2276 89.5989C90.6559 89.7455 89.9998 89.8188 89.2595 89.8188C88.138 89.8188 86.9065 89.5439 85.5651 88.9941L86.0709 87.6307C86.8259 87.9093 87.4416 88.1072 87.9181 88.2245C88.4019 88.3418 88.8746 88.4004 89.3364 88.4004C91.125 88.4004 92.0193 87.8323 92.0193 86.6962C92.0193 86.4469 91.9313 86.227 91.7554 86.0365C91.5795 85.8459 91.3449 85.6919 91.0517 85.5747C90.7585 85.45 90.425 85.3254 90.0511 85.2008C89.6846 85.0689 89.3071 84.9479 88.9186 84.838C88.5375 84.728 88.16 84.5851 87.7861 84.4092C87.4196 84.2259 87.0898 84.028 86.7966 83.8154C86.5034 83.5955 86.2688 83.3133 86.0929 82.9688C85.917 82.6243 85.829 82.2358 85.829 81.8033C85.829 81.5394 85.8693 81.2719 85.9499 81.0007C86.0379 80.7221 86.1955 80.4326 86.4227 80.1321C86.6573 79.8242 86.9468 79.5566 87.2913 79.3294C87.6359 79.0949 88.094 78.9043 88.6657 78.7577C89.2448 78.6037 89.8972 78.5268 90.6229 78.5268ZM104.983 73.9748H106.852V89.5989H104.983V73.9748ZM111.47 78.7357H112.734L113.13 79.6593C114.53 78.8969 115.805 78.5158 116.956 78.5158C117.55 78.5158 118.067 78.6111 118.507 78.8016C118.946 78.9849 119.287 79.2195 119.529 79.5053C119.771 79.7839 119.962 80.1394 120.101 80.5719C120.247 80.997 120.339 81.4038 120.376 81.7923C120.42 82.1808 120.442 82.6243 120.442 83.1227V89.5989H118.638V83.0018C118.638 81.096 117.818 80.1431 116.176 80.1431C115.325 80.1431 114.358 80.4253 113.273 80.9897V89.5989H111.47V78.7357ZM123.85 84.3542C123.85 83.4159 123.982 82.573 124.246 81.8253C124.51 81.0776 124.873 80.4656 125.335 79.9891C125.796 79.5127 126.335 79.1498 126.951 78.9006C127.574 78.6441 128.245 78.5158 128.963 78.5158C129.828 78.5158 130.704 78.71 131.591 79.0985V72.9852H133.394V89.5989H132.141L131.844 88.9172C130.825 89.5182 129.762 89.8188 128.655 89.8188C128.201 89.8188 127.757 89.7638 127.325 89.6539C126.892 89.5439 126.463 89.3533 126.038 89.0821C125.613 88.8109 125.239 88.4737 124.917 88.0706C124.602 87.6601 124.345 87.136 124.147 86.4982C123.949 85.8605 123.85 85.1458 123.85 84.3542ZM129.249 88.3344C130.048 88.3344 130.828 88.1292 131.591 87.7187V80.4619C130.806 80.1101 130.018 79.9341 129.227 79.9341C128.89 79.9341 128.563 79.9708 128.248 80.0441C127.933 80.1174 127.611 80.2493 127.281 80.4399C126.951 80.6305 126.665 80.8761 126.423 81.1766C126.188 81.4771 125.994 81.8766 125.84 82.3751C125.686 82.8662 125.609 83.4306 125.609 84.0683C125.609 84.728 125.69 85.3181 125.851 85.8385C126.013 86.3516 126.218 86.7621 126.467 87.07C126.716 87.3779 127.009 87.6307 127.347 87.8287C127.684 88.0266 128.006 88.1622 128.314 88.2355C128.622 88.3015 128.934 88.3344 129.249 88.3344ZM144.642 78.7357H146.445V89.5989H145.181L144.796 88.6863C143.411 89.4413 142.131 89.8188 140.959 89.8188C140.365 89.8188 139.848 89.7272 139.408 89.5439C138.969 89.3533 138.628 89.1188 138.386 88.8402C138.144 88.5617 137.95 88.2098 137.803 87.7847C137.656 87.3522 137.561 86.9417 137.517 86.5532C137.48 86.1647 137.462 85.7213 137.462 85.2228V78.7357H139.265V85.3548C139.265 87.2532 140.09 88.2025 141.739 88.2025C142.59 88.2025 143.557 87.9203 144.642 87.3559V78.7357ZM154.922 78.5268C155.076 78.5268 155.219 78.5304 155.351 78.5378C155.491 78.5378 155.622 78.5451 155.747 78.5598C155.879 78.5744 155.989 78.5854 156.077 78.5927C156.172 78.6001 156.279 78.6147 156.396 78.6367C156.52 78.6587 156.608 78.677 156.66 78.6917C156.718 78.699 156.81 78.721 156.935 78.7577C157.067 78.787 157.147 78.8053 157.176 78.8126C157.206 78.82 157.29 78.8456 157.429 78.8896C157.576 78.9336 157.66 78.9592 157.682 78.9666L157.22 80.341C156.238 80.0698 155.373 79.9341 154.626 79.9341C154.193 79.9341 153.808 79.9781 153.471 80.0661C153.141 80.1541 152.885 80.2603 152.701 80.3849C152.526 80.5096 152.379 80.6562 152.262 80.8248C152.152 80.986 152.078 81.129 152.042 81.2536C152.012 81.3782 151.998 81.4991 151.998 81.6164C151.998 81.9169 152.152 82.1845 152.46 82.4191C152.775 82.6536 153.163 82.8442 153.625 82.9908C154.094 83.1374 154.6 83.3133 155.142 83.5186C155.685 83.7165 156.187 83.929 156.649 84.1563C157.118 84.3762 157.506 84.6877 157.814 85.0909C158.129 85.494 158.287 85.9595 158.287 86.4873C158.287 86.7878 158.247 87.081 158.166 87.3669C158.093 87.6454 157.946 87.9386 157.726 88.2465C157.514 88.5543 157.235 88.8219 156.891 89.0491C156.553 89.269 156.099 89.4523 155.527 89.5989C154.955 89.7455 154.299 89.8188 153.559 89.8188C152.438 89.8188 151.206 89.5439 149.865 88.9941L150.37 87.6307C151.125 87.9093 151.741 88.1072 152.218 88.2245C152.701 88.3418 153.174 88.4004 153.636 88.4004C155.425 88.4004 156.319 87.8323 156.319 86.6962C156.319 86.4469 156.231 86.227 156.055 86.0365C155.879 85.8459 155.644 85.6919 155.351 85.5747C155.058 85.45 154.725 85.3254 154.351 85.2008C153.984 85.0689 153.607 84.9479 153.218 84.838C152.837 84.728 152.46 84.5851 152.086 84.4092C151.719 84.2259 151.389 84.028 151.096 83.8154C150.803 83.5955 150.568 83.3133 150.392 82.9688C150.217 82.6243 150.129 82.2358 150.129 81.8033C150.129 81.5394 150.169 81.2719 150.25 81.0007C150.337 80.7221 150.495 80.4326 150.722 80.1321C150.957 79.8242 151.246 79.5566 151.591 79.3294C151.935 79.0949 152.394 78.9043 152.965 78.7577C153.544 78.6037 154.197 78.5268 154.922 78.5268ZM167.358 89.412C166.295 89.6832 165.467 89.8188 164.873 89.8188C164.279 89.8188 163.777 89.7235 163.367 89.5329C162.956 89.3423 162.645 89.0711 162.432 88.7193C162.22 88.3674 162.066 87.9899 161.97 87.5868C161.882 87.1763 161.838 86.7072 161.838 86.1794V80.1541H160.376V78.7357H161.838V75.6241H163.642V78.7357H166.951V80.1541H163.642V86.1574C163.642 87.6601 164.235 88.4114 165.423 88.4114C165.635 88.4114 166.196 88.3344 167.105 88.1805L167.358 89.412ZM171.723 79.5493C172.639 78.8676 173.651 78.5268 174.758 78.5268C175.52 78.5268 176.213 78.6697 176.836 78.9556L176.286 80.3959C175.714 80.176 175.121 80.0661 174.505 80.0661C173.589 80.0661 172.727 80.319 171.921 80.8248V89.5989H170.118V78.7357H171.382L171.723 79.5493ZM178.771 73.9748H180.904V76.0529H178.771V73.9748ZM178.936 78.7357H180.739V89.5989H178.936V78.7357ZM188.293 78.5268C189.099 78.5268 189.781 78.6221 190.338 78.8126C190.902 78.9959 191.335 79.2671 191.635 79.6263C191.943 79.9855 192.163 80.3849 192.295 80.8248C192.427 81.2646 192.493 81.7703 192.493 82.3421V89.5989H191.217L190.8 88.6093C189.913 89.4156 188.894 89.8188 187.743 89.8188C186.717 89.8188 185.848 89.5109 185.137 88.8952C184.426 88.2721 184.071 87.5465 184.071 86.7182C184.071 86.2783 184.151 85.8825 184.312 85.5307C184.474 85.1788 184.705 84.8856 185.005 84.6511C185.313 84.4165 185.661 84.2186 186.05 84.0573C186.438 83.8887 186.889 83.7605 187.402 83.6725C187.923 83.5845 188.443 83.5222 188.963 83.4856C189.484 83.4489 190.056 83.4306 190.679 83.4306V82.573C190.679 82.3238 190.668 82.1075 190.646 81.9243C190.631 81.741 190.572 81.5211 190.47 81.2646C190.367 81.008 190.228 80.7991 190.052 80.6378C189.876 80.4692 189.612 80.3263 189.26 80.209C188.908 80.0844 188.491 80.0221 188.007 80.0221C187.259 80.0221 186.292 80.187 185.104 80.5169L184.763 79.1975C185.965 78.7503 187.142 78.5268 188.293 78.5268ZM190.679 84.794H190.008C189.59 84.794 189.227 84.8013 188.919 84.816C188.612 84.8307 188.249 84.8746 187.831 84.9479C187.42 85.0139 187.083 85.1092 186.819 85.2338C186.555 85.3584 186.328 85.5417 186.138 85.7836C185.954 86.0181 185.863 86.3003 185.863 86.6302C185.863 87.092 186.094 87.5025 186.555 87.8616C187.025 88.2208 187.582 88.4004 188.227 88.4004C189.172 88.4004 189.99 88.0302 190.679 87.2899V84.794ZM196.682 72.9852H198.485V89.5989H196.682V72.9852ZM207.336 78.5268C207.864 78.5268 208.337 78.5927 208.755 78.7247C209.18 78.8493 209.532 79.0106 209.81 79.2085C210.089 79.4064 210.327 79.6666 210.525 79.9891C210.73 80.3043 210.884 80.6122 210.987 80.9127C211.097 81.2059 211.181 81.5614 211.24 81.9792C211.298 82.3971 211.335 82.7599 211.35 83.0678C211.364 83.3756 211.372 83.7385 211.372 84.1563V85.0139H203.906C203.906 85.4097 203.994 85.8056 204.17 86.2014C204.353 86.5899 204.606 86.949 204.928 87.2789C205.258 87.6014 205.687 87.8653 206.215 88.0706C206.75 88.2758 207.34 88.3784 207.985 88.3784C208.747 88.3784 209.572 88.2465 210.459 87.9826L210.778 89.214C209.598 89.6172 208.439 89.8188 207.303 89.8188C206.504 89.8188 205.793 89.7125 205.17 89.4999C204.555 89.2873 204.056 89.0125 203.675 88.6753C203.301 88.3308 202.993 87.9203 202.751 87.4438C202.509 86.9674 202.341 86.4946 202.246 86.0255C202.158 85.549 202.114 85.0469 202.114 84.5191C202.114 83.7055 202.213 82.9615 202.41 82.2871C202.608 81.6127 202.876 81.0483 203.213 80.5939C203.55 80.1321 203.942 79.7436 204.39 79.4284C204.844 79.1132 205.317 78.8859 205.808 78.7467C206.306 78.6001 206.816 78.5268 207.336 78.5268ZM206.951 80.0881C206.306 80.0881 205.749 80.2677 205.28 80.6268C204.818 80.9787 204.481 81.4185 204.269 81.9463C204.056 82.474 203.95 83.0421 203.95 83.6505H209.623C209.623 81.2756 208.733 80.0881 206.951 80.0881ZM219.288 78.5268C219.442 78.5268 219.585 78.5304 219.717 78.5378C219.856 78.5378 219.988 78.5451 220.113 78.5598C220.245 78.5744 220.355 78.5854 220.442 78.5927C220.538 78.6001 220.644 78.6147 220.761 78.6367C220.886 78.6587 220.974 78.677 221.025 78.6917C221.084 78.699 221.176 78.721 221.3 78.7577C221.432 78.787 221.513 78.8053 221.542 78.8126C221.571 78.82 221.656 78.8456 221.795 78.8896C221.941 78.9336 222.026 78.9592 222.048 78.9666L221.586 80.341C220.604 80.0698 219.739 79.9341 218.991 79.9341C218.559 79.9341 218.174 79.9781 217.837 80.0661C217.507 80.1541 217.25 80.2603 217.067 80.3849C216.891 80.5096 216.744 80.6562 216.627 80.8248C216.517 80.986 216.444 81.129 216.407 81.2536C216.378 81.3782 216.363 81.4991 216.363 81.6164C216.363 81.9169 216.517 82.1845 216.825 82.4191C217.14 82.6536 217.529 82.8442 217.991 82.9908C218.46 83.1374 218.965 83.3133 219.508 83.5186C220.05 83.7165 220.552 83.929 221.014 84.1563C221.483 84.3762 221.872 84.6877 222.18 85.0909C222.495 85.494 222.653 85.9595 222.653 86.4873C222.653 86.7878 222.612 87.081 222.532 87.3669C222.458 87.6454 222.312 87.9386 222.092 88.2465C221.879 88.5543 221.601 88.8219 221.256 89.0491C220.919 89.269 220.464 89.4523 219.893 89.5989C219.321 89.7455 218.665 89.8188 217.925 89.8188C216.803 89.8188 215.572 89.5439 214.23 88.9941L214.736 87.6307C215.491 87.9093 216.107 88.1072 216.583 88.2245C217.067 88.3418 217.54 88.4004 218.002 88.4004C219.79 88.4004 220.684 87.8323 220.684 86.6962C220.684 86.4469 220.596 86.227 220.421 86.0365C220.245 85.8459 220.01 85.6919 219.717 85.5747C219.424 85.45 219.09 85.3254 218.716 85.2008C218.35 85.0689 217.972 84.9479 217.584 84.838C217.203 84.728 216.825 84.5851 216.451 84.4092C216.085 84.2259 215.755 84.028 215.462 83.8154C215.168 83.5955 214.934 83.3133 214.758 82.9688C214.582 82.6243 214.494 82.2358 214.494 81.8033C214.494 81.5394 214.534 81.2719 214.615 81.0007C214.703 80.7221 214.861 80.4326 215.088 80.1321C215.322 79.8242 215.612 79.5566 215.956 79.3294C216.301 79.0949 216.759 78.9043 217.331 78.7577C217.91 78.6037 218.562 78.5268 219.288 78.5268Z" fill="white"/>
<path d="M5.27925 62.6858V5.33785H18.6501V28.2152H37.7404V5.33785H51.1112V62.6858H37.7404V40.1949H18.6501V62.6858H5.27925ZM56.4393 62.6858L73.9065 5.33785H90.6007L108.068 62.6858H94.2333L91.2963 52.2519H73.0563L70.1966 62.6858H56.4393ZM76.1478 40.2722H88.2048L82.1763 16.7765L76.1478 40.2722ZM169.673 62.6858L187.14 5.33785H203.834L221.301 62.6858H207.467L204.53 52.2519H186.29L183.43 62.6858H169.673ZM189.381 40.2722H201.438L195.41 16.7765L189.381 40.2722Z" fill="white"/>
<path d="M139.762 62.1537C135.995 62.3643 130.101 62.1367 130.101 62.1367H121.522V49.4784C123.944 49.7361 126.778 49.9164 130.024 50.0195C133.27 50.1225 136.284 50.174 139.067 50.174C141.798 50.174 143.885 49.8391 145.327 49.1693C146.821 48.4995 147.569 47.2371 147.569 45.3822V43.9137C147.569 42.5225 147.105 41.4662 146.177 40.7449C145.301 40.0235 144.168 39.6628 142.777 39.6628H138.294C132.523 39.6628 128.143 38.4004 125.155 35.8757C122.166 33.3509 120.672 29.1001 120.672 23.1231V20.418C120.672 14.8017 122.295 10.6539 125.541 7.97461C128.839 5.24376 133.605 3.87833 139.84 3.87833C143.189 3.87833 149.501 3.8783 149.501 3.8783C149.501 3.8783 155.246 3.72645 157.461 4.24171V16.0899C155.091 15.9353 152.438 16.0126 149.501 15.858C146.564 15.7034 143.885 15.858 141.463 15.858C138.99 15.858 137.006 16.1929 135.512 16.8628C134.069 17.5326 133.348 18.9496 133.348 21.1136V22.1957C133.348 25.3902 135.28 26.9875 139.144 26.9875H144.477C147.981 26.9875 150.892 27.6574 153.211 28.997C155.581 30.2852 157.333 32.0886 158.466 34.4072C159.651 36.6743 160.244 39.2506 160.244 42.136V44.9957C160.244 49.7361 159.394 53.3429 157.693 55.8161C156.045 58.2893 153.674 59.9639 150.583 60.8398C147.491 61.7158 144.012 61.9162 139.762 62.1537Z" fill="white"/>
<rect x="162.785" y="47.0083" width="19.9604" height="4.80375" rx="2.40187" transform="rotate(-180 162.785 47.0083)" fill="white"/>
<rect x="136.283" y="23.7903" width="18.4069" height="5.05026" rx="2.52513" transform="rotate(-180 136.283 23.7903)" fill="white"/>
<rect width="17.5623" height="4.80351" rx="2.40175" transform="matrix(-0.0206058 -0.999788 0.999919 -0.0127463 155.119 18.5232)" fill="white"/>
<rect width="17.5623" height="4.80351" rx="2.40175" transform="matrix(-0.0206058 -0.999788 0.999919 -0.0127463 119.566 65.3147)" fill="white"/>
<rect x="162.785" y="50.1411" width="22.3295" height="3.13325" rx="1.56663" transform="rotate(-180 162.785 50.1411)" fill="#1569A0"/>
<rect x="142.417" y="27.0842" width="24.5406" height="3.29404" rx="1.64702" transform="rotate(-180 142.417 27.0842)" fill="#1569A0"/>
<rect width="17.5623" height="3.1331" rx="1.56655" transform="matrix(-0.0206058 -0.999788 0.999919 -0.0127463 151.985 18.5681)" fill="#1569A0"/>
<rect width="17.5623" height="3.1331" rx="1.56655" transform="matrix(-0.0206058 -0.999788 0.999919 -0.0127463 116.43 64.6992)" fill="#1569A0"/>
<rect x="162.785" y="42.2046" width="22.3295" height="2.51516" rx="1.25758" transform="rotate(-180 162.785 42.2046)" fill="#1569A0"/>
<rect x="141.353" y="18.7402" width="23.4754" height="2.64424" rx="1.32212" transform="rotate(-180 141.353 18.7402)" fill="#1569A0"/>
<rect width="17.5623" height="2.51504" rx="1.25752" transform="matrix(-0.0206058 -0.999788 0.999919 -0.0127463 159.923 18.4673)" fill="#1569A0"/>
<rect width="17.5623" height="2.51504" rx="1.25752" transform="matrix(-0.0206058 -0.999788 0.999919 -0.0127463 124.367 64.5986)" fill="#1569A0"/>
</svg>
