<svg width="39" height="39" viewBox="0 0 39 39" fill="none" xmlns="http://www.w3.org/2000/svg">
<path fill-rule="evenodd" clip-rule="evenodd" d="M5.53191 16.4942C5.32523 15.9277 5.28469 15.3139 5.41507 14.7251C5.54544 14.1363 5.84131 13.597 6.26784 13.1707L16.3398 3.09716C17.2301 2.20706 18.4376 1.70703 19.6965 1.70703C20.9555 1.70703 22.1629 2.20706 23.0533 3.09716L33.1252 13.1691C33.552 13.5955 33.8481 14.1351 33.9785 14.7242C34.1089 15.3133 34.0682 15.9274 33.8611 16.4942C33.9118 16.6509 33.9403 16.8171 33.9403 16.9896V34.3986C33.9403 35.2381 33.6068 36.0432 33.0132 36.6368C32.4196 37.2304 31.6145 37.5639 30.775 37.5639H8.61806C7.77857 37.5639 6.97347 37.2304 6.37987 36.6368C5.78626 36.0432 5.45278 35.2381 5.45278 34.3986V16.9896C5.45265 16.8213 5.47937 16.6541 5.53191 16.4942ZM8.50569 15.4069L18.5776 5.33659C18.8744 5.03989 19.2769 4.87322 19.6965 4.87322C20.1162 4.87322 20.5187 5.03989 20.8155 5.33659L30.8874 15.4069H30.8399V15.4544L20.8155 25.4788C20.5187 25.7755 20.1162 25.9422 19.6965 25.9422C19.2769 25.9422 18.8744 25.7755 18.5776 25.4788L8.50569 15.4069ZM30.7734 19.9966L23.0533 27.7183C22.1629 28.6084 20.9555 29.1084 19.6965 29.1084C18.4376 29.1084 17.2301 28.6084 16.3398 27.7183L8.61647 19.995V34.3986H30.7734V19.9966Z" fill="#F2F2F2"/>
</svg>
