<svg width="39" height="39" viewBox="0 0 39 39" fill="none" xmlns="http://www.w3.org/2000/svg">
<path d="M31.5639 34.6242H31.3621C8.03798 33.2829 4.7263 13.6028 4.26338 7.59664C4.22608 7.12966 4.28129 6.6599 4.42585 6.2143C4.57041 5.76869 4.80147 5.35598 5.1058 4.99983C5.41013 4.64367 5.78175 4.35107 6.19936 4.13878C6.61697 3.92649 7.07236 3.79869 7.53944 3.7627H14.0797C14.5552 3.76224 15.0198 3.90455 15.4134 4.17121C15.8071 4.43787 16.1116 4.81658 16.2875 5.25829L18.0917 9.69759C18.2654 10.1291 18.3085 10.6022 18.2157 11.058C18.1228 11.5138 17.8981 11.9323 17.5694 12.2615L15.0412 14.8135C15.4361 17.0578 16.5108 19.1266 18.1201 20.74C19.7293 22.3535 21.7952 23.4337 24.0385 23.8345L26.6142 21.2825C26.9483 20.9575 27.3708 20.738 27.8288 20.6514C28.2869 20.5649 28.7603 20.6151 29.1899 20.7958L33.6649 22.5882C34.0999 22.7697 34.4711 23.0765 34.7311 23.4697C34.9911 23.8629 35.1282 24.3246 35.1248 24.796V31.0632C35.1248 32.0076 34.7497 32.9134 34.0819 33.5812C33.4141 34.249 32.5083 34.6242 31.5639 34.6242ZM7.82432 6.13665C7.50951 6.13665 7.2076 6.26171 6.985 6.48431C6.7624 6.70691 6.63734 7.00883 6.63734 7.32363V7.41859C7.18335 14.4455 10.6849 31.0632 31.4927 32.2502C31.6486 32.2598 31.8049 32.2386 31.9526 32.1877C32.1004 32.1368 32.2366 32.0572 32.3535 31.9536C32.4703 31.8499 32.5656 31.7242 32.6338 31.5836C32.702 31.4431 32.7418 31.2904 32.7509 31.1344V24.796L28.276 23.0036L24.8693 26.3865L24.2996 26.3153C13.9729 25.0215 12.5722 14.6948 12.5722 14.5879L12.501 14.0182L15.872 10.6116L14.0916 6.13665H7.82432Z" fill="#F2F2F2"/>
</svg>
