<svg width="39" height="39" viewBox="0 0 39 39" fill="none" xmlns="http://www.w3.org/2000/svg">
<g clip-path="url(#clip0)">
<path d="M33.9403 16.7911C33.9403 27.8696 19.6965 37.3654 19.6965 37.3654C19.6965 37.3654 5.45276 27.8696 5.45276 16.7911C5.45276 13.0134 6.95344 9.39048 9.62466 6.71926C12.2959 4.04804 15.9188 2.54736 19.6965 2.54736C23.4742 2.54736 27.0971 4.04804 29.7684 6.71926C32.4396 9.39048 33.9403 13.0134 33.9403 16.7911Z" stroke="#F2F2F2" stroke-width="3.16528" stroke-linecap="round" stroke-linejoin="round"/>
<path d="M19.6965 21.539C22.3187 21.539 24.4444 19.4133 24.4444 16.7911C24.4444 14.1689 22.3187 12.0432 19.6965 12.0432C17.0743 12.0432 14.9486 14.1689 14.9486 16.7911C14.9486 19.4133 17.0743 21.539 19.6965 21.539Z" stroke="#F2F2F2" stroke-width="3.16528" stroke-linecap="round" stroke-linejoin="round"/>
</g>
<defs>
<clipPath id="clip0">
<rect width="37.9833" height="37.9833" fill="white" transform="translate(0.704834 0.964844)"/>
</clipPath>
</defs>
</svg>
